<svg xmlns="http://www.w3.org/2000/svg" width="1600" height="600" viewBox="0 0 1600 600" fill="none">
  <defs>
    <linearGradient id="g1" x1="0" y1="0" x2="1600" y2="600" gradientUnits="userSpaceOnUse">
      <stop stop-color="#DCFCE7"/>
      <stop offset="0.55" stop-color="#E0F2FE"/>
      <stop offset="1" stop-color="#FFE4E6"/>
    </linearGradient>
    <linearGradient id="g2" x1="250" y1="120" x2="1380" y2="520" gradientUnits="userSpaceOnUse">
      <stop stop-color="#22C55E" stop-opacity="0.35"/>
      <stop offset="1" stop-color="#3B82F6" stop-opacity="0.25"/>
    </linearGradient>
  </defs>

  <rect width="1600" height="600" rx="48" fill="url(#g1)"/>
  <path d="M120 420c220-220 520-320 820-260 180 36 310 120 540 64v208H120V420Z" fill="url(#g2)"/>

  <g opacity="0.85">
    <circle cx="280" cy="180" r="70" fill="#22C55E"/>
    <circle cx="420" cy="140" r="44" fill="#3B82F6"/>
    <circle cx="520" cy="220" r="34" fill="#F59E0B"/>
    <circle cx="1320" cy="160" r="84" fill="#3B82F6"/>
    <circle cx="1420" cy="260" r="46" fill="#22C55E"/>
  </g>

  <g>
    <rect x="260" y="300" width="1080" height="170" rx="32" fill="#FFFFFF" opacity="0.75"/>
    <rect x="310" y="336" width="220" height="18" rx="9" fill="#111827" opacity="0.18"/>
    <rect x="310" y="368" width="500" height="18" rx="9" fill="#111827" opacity="0.14"/>
    <rect x="310" y="400" width="380" height="18" rx="9" fill="#111827" opacity="0.12"/>
    <rect x="1100" y="342" width="200" height="56" rx="28" fill="#22C55E" opacity="0.9"/>
    <rect x="1100" y="412" width="200" height="38" rx="19" fill="#3B82F6" opacity="0.28"/>
  </g>
</svg>
